<mxfile host="app.diagrams.net" modified="2021-09-29T09:20:20.753Z" agent="5.0 (X11; Linux x86_64) AppleWebKit/537.36 (KHTML, like Gecko) Chrome/93.0.4577.63 Safari/537.36" etag="lEJ3xvJZGXHUAcH0V8TI" version="15.3.4" type="github" pages="2">
  <diagram id="YLq6dlvJsyPCOtHQID4H" name="第 1 页">
    <mxGraphModel dx="1248" dy="625" grid="1" gridSize="10" guides="1" tooltips="1" connect="1" arrows="1" fold="1" page="1" pageScale="1" pageWidth="827" pageHeight="1169" math="0" shadow="0">
      <root>
        <mxCell id="0" />
        <mxCell id="1" parent="0" />
        <mxCell id="Uj7XTkn3V8DS06RKUdCK-15" value="" style="rounded=0;whiteSpace=wrap;html=1;sketch=1;hachureGap=4;pointerEvents=0;fillColor=none;" parent="1" vertex="1">
          <mxGeometry x="120" y="280" width="70" height="50" as="geometry" />
        </mxCell>
        <mxCell id="Uj7XTkn3V8DS06RKUdCK-18" value="" style="rounded=0;whiteSpace=wrap;html=1;sketch=1;hachureGap=4;pointerEvents=0;fillColor=none;" parent="1" vertex="1">
          <mxGeometry x="190" y="280" width="70" height="50" as="geometry" />
        </mxCell>
        <mxCell id="Uj7XTkn3V8DS06RKUdCK-27" value="" style="rounded=0;whiteSpace=wrap;html=1;sketch=1;hachureGap=4;pointerEvents=0;fillColor=none;" parent="1" vertex="1">
          <mxGeometry x="260" y="280" width="70" height="50" as="geometry" />
        </mxCell>
        <mxCell id="Uj7XTkn3V8DS06RKUdCK-28" value="" style="rounded=0;whiteSpace=wrap;html=1;sketch=1;hachureGap=4;pointerEvents=0;fillColor=none;" parent="1" vertex="1">
          <mxGeometry x="330" y="280" width="70" height="50" as="geometry" />
        </mxCell>
        <mxCell id="Uj7XTkn3V8DS06RKUdCK-29" value="" style="rounded=0;whiteSpace=wrap;html=1;sketch=1;hachureGap=4;pointerEvents=0;fillColor=none;" parent="1" vertex="1">
          <mxGeometry x="400" y="280" width="70" height="50" as="geometry" />
        </mxCell>
        <mxCell id="Uj7XTkn3V8DS06RKUdCK-30" value="" style="rounded=0;whiteSpace=wrap;html=1;sketch=1;hachureGap=4;pointerEvents=0;fillColor=none;" parent="1" vertex="1">
          <mxGeometry x="470" y="280" width="70" height="50" as="geometry" />
        </mxCell>
        <mxCell id="Uj7XTkn3V8DS06RKUdCK-33" value="" style="ellipse;whiteSpace=wrap;html=1;aspect=fixed;sketch=1;hachureGap=4;pointerEvents=0;fillColor=#000000;" parent="1" vertex="1">
          <mxGeometry x="140" y="290" width="30" height="30" as="geometry" />
        </mxCell>
        <mxCell id="Uj7XTkn3V8DS06RKUdCK-34" value="" style="ellipse;whiteSpace=wrap;html=1;aspect=fixed;sketch=1;hachureGap=4;pointerEvents=0;fillColor=#000000;" parent="1" vertex="1">
          <mxGeometry x="210" y="290" width="30" height="30" as="geometry" />
        </mxCell>
        <mxCell id="Uj7XTkn3V8DS06RKUdCK-36" value="" style="ellipse;whiteSpace=wrap;html=1;aspect=fixed;sketch=1;hachureGap=4;pointerEvents=0;fillColor=#000000;" parent="1" vertex="1">
          <mxGeometry x="350" y="290" width="30" height="30" as="geometry" />
        </mxCell>
        <mxCell id="Uj7XTkn3V8DS06RKUdCK-37" value="" style="ellipse;whiteSpace=wrap;html=1;aspect=fixed;sketch=1;hachureGap=4;pointerEvents=0;fillColor=#000000;" parent="1" vertex="1">
          <mxGeometry x="420" y="290" width="30" height="30" as="geometry" />
        </mxCell>
        <mxCell id="Uj7XTkn3V8DS06RKUdCK-39" value="&lt;font style=&quot;font-size: 29px;&quot;&gt;...&lt;/font&gt;" style="text;html=1;align=center;verticalAlign=middle;resizable=0;points=[];autosize=1;strokeColor=none;fillColor=none;fontSize=29;" parent="1" vertex="1">
          <mxGeometry x="485" y="280" width="40" height="40" as="geometry" />
        </mxCell>
        <mxCell id="Uj7XTkn3V8DS06RKUdCK-41" value="" style="ellipse;whiteSpace=wrap;html=1;aspect=fixed;sketch=1;hachureGap=4;pointerEvents=0;fillColor=#000000;" parent="1" vertex="1">
          <mxGeometry x="139.5" y="290" width="30" height="30" as="geometry" />
        </mxCell>
        <mxCell id="Uj7XTkn3V8DS06RKUdCK-42" value="" style="endArrow=classic;html=1;fontSize=29;startSize=14;endSize=14;sourcePerimeterSpacing=8;targetPerimeterSpacing=8;exitX=0;exitY=1;exitDx=0;exitDy=0;sketch=1;entryX=1;entryY=0;entryDx=0;entryDy=0;" parent="1" source="Uj7XTkn3V8DS06RKUdCK-41" edge="1">
          <mxGeometry width="50" height="50" relative="1" as="geometry">
            <mxPoint x="154" y="320" as="sourcePoint" />
            <mxPoint x="87.10660171779818" y="364.3933982822018" as="targetPoint" />
          </mxGeometry>
        </mxCell>
        <mxCell id="Uj7XTkn3V8DS06RKUdCK-43" value="" style="ellipse;whiteSpace=wrap;html=1;aspect=fixed;sketch=1;hachureGap=4;pointerEvents=0;fillColor=#FF0000;fontColor=#FF0000;strokeColor=#FF0000;" parent="1" vertex="1">
          <mxGeometry x="60.5" y="360" width="30" height="30" as="geometry" />
        </mxCell>
        <mxCell id="Uj7XTkn3V8DS06RKUdCK-44" value="" style="endArrow=classic;html=1;fontSize=29;startSize=14;endSize=14;sourcePerimeterSpacing=8;targetPerimeterSpacing=8;exitX=0.5;exitY=1;exitDx=0;exitDy=0;sketch=1;" parent="1" edge="1">
          <mxGeometry width="50" height="50" relative="1" as="geometry">
            <mxPoint x="365" y="320" as="sourcePoint" />
            <mxPoint x="365" y="410" as="targetPoint" />
          </mxGeometry>
        </mxCell>
        <mxCell id="Uj7XTkn3V8DS06RKUdCK-45" value="" style="ellipse;whiteSpace=wrap;html=1;aspect=fixed;sketch=1;hachureGap=4;pointerEvents=0;fillColor=#000000;" parent="1" vertex="1">
          <mxGeometry x="350" y="410" width="30" height="30" as="geometry" />
        </mxCell>
        <mxCell id="Uj7XTkn3V8DS06RKUdCK-46" value="&lt;font style=&quot;font-size: 17px&quot;&gt;数组 table&lt;/font&gt;" style="text;html=1;align=center;verticalAlign=middle;resizable=0;points=[];autosize=1;strokeColor=none;fillColor=none;fontSize=29;" parent="1" vertex="1">
          <mxGeometry x="255" y="230" width="90" height="40" as="geometry" />
        </mxCell>
        <mxCell id="Uj7XTkn3V8DS06RKUdCK-48" value="" style="endArrow=classic;html=1;fontSize=29;startSize=14;endSize=14;sourcePerimeterSpacing=8;targetPerimeterSpacing=8;sketch=1;entryX=0;entryY=0;entryDx=0;entryDy=0;exitX=1;exitY=1;exitDx=0;exitDy=0;" parent="1" source="Uj7XTkn3V8DS06RKUdCK-41" edge="1">
          <mxGeometry width="50" height="50" relative="1" as="geometry">
            <mxPoint x="159.5" y="320" as="sourcePoint" />
            <mxPoint x="223.89339828220182" y="364.3933982822018" as="targetPoint" />
          </mxGeometry>
        </mxCell>
        <mxCell id="Uj7XTkn3V8DS06RKUdCK-52" value="" style="endArrow=classic;html=1;fontSize=29;startSize=14;endSize=14;sourcePerimeterSpacing=8;targetPerimeterSpacing=8;exitX=0;exitY=1;exitDx=0;exitDy=0;sketch=1;" parent="1" edge="1">
          <mxGeometry width="50" height="50" relative="1" as="geometry">
            <mxPoint x="65.89339828220182" y="385.6066017177982" as="sourcePoint" />
            <mxPoint x="26.5" y="434" as="targetPoint" />
          </mxGeometry>
        </mxCell>
        <mxCell id="Uj7XTkn3V8DS06RKUdCK-53" value="" style="ellipse;whiteSpace=wrap;html=1;aspect=fixed;sketch=1;hachureGap=4;pointerEvents=0;fillColor=#000000;" parent="1" vertex="1">
          <mxGeometry x="9.5" y="430" width="30" height="30" as="geometry" />
        </mxCell>
        <mxCell id="Uj7XTkn3V8DS06RKUdCK-54" value="" style="endArrow=classic;html=1;fontSize=29;startSize=14;endSize=14;sourcePerimeterSpacing=8;targetPerimeterSpacing=8;sketch=1;entryX=0;entryY=0;entryDx=0;entryDy=0;exitX=1;exitY=1;exitDx=0;exitDy=0;" parent="1" target="Uj7XTkn3V8DS06RKUdCK-55" edge="1">
          <mxGeometry width="50" height="50" relative="1" as="geometry">
            <mxPoint x="87.10660171779818" y="385.6066017177982" as="sourcePoint" />
            <mxPoint x="101.5" y="430" as="targetPoint" />
          </mxGeometry>
        </mxCell>
        <mxCell id="Uj7XTkn3V8DS06RKUdCK-55" value="" style="ellipse;whiteSpace=wrap;html=1;aspect=fixed;sketch=1;hachureGap=4;pointerEvents=0;fillColor=#000000;" parent="1" vertex="1">
          <mxGeometry x="111.5" y="430" width="30" height="30" as="geometry" />
        </mxCell>
        <mxCell id="Uj7XTkn3V8DS06RKUdCK-62" value="" style="ellipse;whiteSpace=wrap;html=1;aspect=fixed;sketch=1;hachureGap=4;pointerEvents=0;fillColor=#FF0000;strokeColor=#FF0000;" parent="1" vertex="1">
          <mxGeometry x="219.5" y="360" width="30" height="30" as="geometry" />
        </mxCell>
        <mxCell id="Uj7XTkn3V8DS06RKUdCK-64" value="" style="endArrow=classic;html=1;fontSize=29;startSize=14;endSize=14;sourcePerimeterSpacing=8;targetPerimeterSpacing=8;exitX=0;exitY=1;exitDx=0;exitDy=0;sketch=1;" parent="1" edge="1">
          <mxGeometry width="50" height="50" relative="1" as="geometry">
            <mxPoint x="224.89339828220182" y="385.6066017177982" as="sourcePoint" />
            <mxPoint x="185.5" y="434" as="targetPoint" />
          </mxGeometry>
        </mxCell>
        <mxCell id="Uj7XTkn3V8DS06RKUdCK-65" value="" style="ellipse;whiteSpace=wrap;html=1;aspect=fixed;sketch=1;hachureGap=4;pointerEvents=0;fillColor=#000000;" parent="1" vertex="1">
          <mxGeometry x="168.5" y="430" width="30" height="30" as="geometry" />
        </mxCell>
        <mxCell id="Uj7XTkn3V8DS06RKUdCK-66" value="" style="endArrow=classic;html=1;fontSize=29;startSize=14;endSize=14;sourcePerimeterSpacing=8;targetPerimeterSpacing=8;sketch=1;entryX=0;entryY=0;entryDx=0;entryDy=0;exitX=1;exitY=1;exitDx=0;exitDy=0;" parent="1" target="Uj7XTkn3V8DS06RKUdCK-67" edge="1">
          <mxGeometry width="50" height="50" relative="1" as="geometry">
            <mxPoint x="246.10660171779818" y="385.6066017177982" as="sourcePoint" />
            <mxPoint x="260.5" y="430" as="targetPoint" />
          </mxGeometry>
        </mxCell>
        <mxCell id="Uj7XTkn3V8DS06RKUdCK-67" value="" style="ellipse;whiteSpace=wrap;html=1;aspect=fixed;sketch=1;hachureGap=4;pointerEvents=0;fillColor=#000000;" parent="1" vertex="1">
          <mxGeometry x="270.5" y="430" width="30" height="30" as="geometry" />
        </mxCell>
      </root>
    </mxGraphModel>
  </diagram>
  <diagram id="a-usr8R-VqChk-Wmo8PE" name="第 2 页">
    <mxGraphModel dx="1248" dy="625" grid="1" gridSize="10" guides="1" tooltips="1" connect="1" arrows="1" fold="1" page="1" pageScale="1" pageWidth="827" pageHeight="1169" math="0" shadow="0">
      <root>
        <mxCell id="MDRu_h7Dm8pU5mXwcht_-0" />
        <mxCell id="MDRu_h7Dm8pU5mXwcht_-1" parent="MDRu_h7Dm8pU5mXwcht_-0" />
        <mxCell id="MDRu_h7Dm8pU5mXwcht_-2" value="" style="rounded=0;whiteSpace=wrap;html=1;sketch=1;hachureGap=4;pointerEvents=0;fontSize=29;strokeColor=#006EAF;fillColor=none;fontColor=#ffffff;align=center;verticalAlign=bottom;strokeWidth=4;" vertex="1" parent="MDRu_h7Dm8pU5mXwcht_-1">
          <mxGeometry x="60" y="80" width="290" height="60" as="geometry" />
        </mxCell>
        <mxCell id="MDRu_h7Dm8pU5mXwcht_-5" value="" style="rounded=0;whiteSpace=wrap;html=1;sketch=1;hachureGap=4;pointerEvents=0;fontSize=29;strokeColor=#6D1F00;fillColor=none;fontColor=#ffffff;align=center;verticalAlign=bottom;strokeWidth=4;" vertex="1" parent="MDRu_h7Dm8pU5mXwcht_-1">
          <mxGeometry x="370" y="80" width="170" height="60" as="geometry" />
        </mxCell>
        <mxCell id="MDRu_h7Dm8pU5mXwcht_-6" value="" style="rounded=0;whiteSpace=wrap;html=1;sketch=1;hachureGap=4;pointerEvents=0;fontSize=29;strokeColor=#BD7000;fillColor=none;fontColor=#000000;align=center;verticalAlign=bottom;strokeWidth=4;" vertex="1" parent="MDRu_h7Dm8pU5mXwcht_-1">
          <mxGeometry x="560" y="80" width="460" height="60" as="geometry" />
        </mxCell>
        <mxCell id="MDRu_h7Dm8pU5mXwcht_-7" value="" style="rounded=0;whiteSpace=wrap;html=1;sketch=1;hachureGap=4;pointerEvents=0;fontSize=29;strokeColor=#82b366;fillColor=none;align=center;verticalAlign=bottom;gradientColor=#97d077;strokeWidth=4;" vertex="1" parent="MDRu_h7Dm8pU5mXwcht_-1">
          <mxGeometry x="1050" y="80" width="163" height="60" as="geometry" />
        </mxCell>
        <mxCell id="MDRu_h7Dm8pU5mXwcht_-9" value="" style="rounded=1;whiteSpace=wrap;html=1;sketch=1;hachureGap=4;pointerEvents=0;fontSize=29;strokeColor=#6c8ebf;fillColor=none;align=center;verticalAlign=bottom;gradientColor=#7ea6e0;fontStyle=0;strokeWidth=4;" vertex="1" parent="MDRu_h7Dm8pU5mXwcht_-1">
          <mxGeometry x="100" y="174" width="160" height="56" as="geometry" />
        </mxCell>
        <mxCell id="MDRu_h7Dm8pU5mXwcht_-14" value="" style="edgeStyle=none;curved=1;rounded=0;sketch=1;orthogonalLoop=1;jettySize=auto;html=1;fontSize=29;fontColor=#FF0000;endArrow=open;startSize=14;endSize=14;sourcePerimeterSpacing=8;targetPerimeterSpacing=8;entryX=0.489;entryY=0.095;entryDx=0;entryDy=0;entryPerimeter=0;strokeWidth=2;" edge="1" parent="MDRu_h7Dm8pU5mXwcht_-1">
          <mxGeometry relative="1" as="geometry">
            <mxPoint x="170.26608711111112" y="230" as="sourcePoint" />
            <mxPoint x="169.93673999999987" y="298.92999999999995" as="targetPoint" />
          </mxGeometry>
        </mxCell>
        <mxCell id="MDRu_h7Dm8pU5mXwcht_-11" value="&lt;font style=&quot;font-size: 22px&quot;&gt;开始&lt;/font&gt;" style="text;html=1;align=center;verticalAlign=middle;resizable=0;points=[];autosize=1;strokeColor=none;fillColor=none;fontSize=29;gradientColor=#7ea6e0;" vertex="1" parent="MDRu_h7Dm8pU5mXwcht_-1">
          <mxGeometry x="141.66" y="182" width="60" height="40" as="geometry" />
        </mxCell>
        <mxCell id="MDRu_h7Dm8pU5mXwcht_-19" value="&lt;font style=&quot;font-size: 22px&quot; color=&quot;#000000&quot;&gt;计算索引、逻辑判断&lt;/font&gt;" style="text;html=1;align=center;verticalAlign=middle;resizable=0;points=[];autosize=1;strokeColor=none;fillColor=none;fontSize=29;fontColor=#FF0000;sketch=1;" vertex="1" parent="MDRu_h7Dm8pU5mXwcht_-1">
          <mxGeometry x="85" y="90" width="210" height="40" as="geometry" />
        </mxCell>
        <mxCell id="MDRu_h7Dm8pU5mXwcht_-20" value="&lt;font style=&quot;font-size: 22px&quot; color=&quot;#000000&quot;&gt;扩容&lt;/font&gt;" style="text;html=1;align=center;verticalAlign=middle;resizable=0;points=[];autosize=1;strokeColor=none;fillColor=none;fontSize=29;fontColor=#FF0000;" vertex="1" parent="MDRu_h7Dm8pU5mXwcht_-1">
          <mxGeometry x="416" y="90" width="60" height="40" as="geometry" />
        </mxCell>
        <mxCell id="MDRu_h7Dm8pU5mXwcht_-21" value="&lt;font style=&quot;font-size: 22px&quot; color=&quot;#000000&quot;&gt;链表&lt;/font&gt;" style="text;html=1;align=center;verticalAlign=middle;resizable=0;points=[];autosize=1;strokeColor=none;fillColor=none;fontSize=29;fontColor=#FF0000;" vertex="1" parent="MDRu_h7Dm8pU5mXwcht_-1">
          <mxGeometry x="760" y="90" width="60" height="40" as="geometry" />
        </mxCell>
        <mxCell id="MDRu_h7Dm8pU5mXwcht_-22" value="&lt;font style=&quot;font-size: 22px&quot; color=&quot;#000000&quot;&gt;红黑树&lt;/font&gt;" style="text;html=1;align=center;verticalAlign=middle;resizable=0;points=[];autosize=1;strokeColor=none;fillColor=none;fontSize=29;fontColor=#FF0000;" vertex="1" parent="MDRu_h7Dm8pU5mXwcht_-1">
          <mxGeometry x="1087" y="90" width="80" height="40" as="geometry" />
        </mxCell>
        <mxCell id="MDRu_h7Dm8pU5mXwcht_-25" value="" style="edgeStyle=none;curved=1;rounded=0;sketch=1;orthogonalLoop=1;jettySize=auto;html=1;fontSize=29;fontColor=#FF0000;endArrow=open;startSize=14;endSize=14;sourcePerimeterSpacing=8;targetPerimeterSpacing=8;entryX=0.438;entryY=0.015;entryDx=0;entryDy=0;entryPerimeter=0;strokeWidth=2;" edge="1" parent="MDRu_h7Dm8pU5mXwcht_-1" target="MDRu_h7Dm8pU5mXwcht_-54">
          <mxGeometry relative="1" as="geometry">
            <mxPoint x="171.48608711111112" y="410" as="sourcePoint" />
            <mxPoint x="171.15673999999987" y="478.92999999999995" as="targetPoint" />
          </mxGeometry>
        </mxCell>
        <mxCell id="MDRu_h7Dm8pU5mXwcht_-109" value="&lt;font color=&quot;#000000&quot;&gt;否&lt;/font&gt;" style="edgeLabel;html=1;align=center;verticalAlign=middle;resizable=0;points=[];fontSize=16;fontColor=#CC6600;" vertex="1" connectable="0" parent="MDRu_h7Dm8pU5mXwcht_-25">
          <mxGeometry x="-0.4463" y="-1" relative="1" as="geometry">
            <mxPoint as="offset" />
          </mxGeometry>
        </mxCell>
        <mxCell id="MDRu_h7Dm8pU5mXwcht_-58" style="edgeStyle=none;rounded=1;sketch=1;orthogonalLoop=1;jettySize=auto;html=1;exitX=0.5;exitY=1;exitDx=0;exitDy=0;entryX=1;entryY=0.5;entryDx=0;entryDy=0;fontSize=16;fontColor=#6666FF;endArrow=open;startSize=14;endSize=14;sourcePerimeterSpacing=8;targetPerimeterSpacing=8;strokeWidth=2;" edge="1" parent="MDRu_h7Dm8pU5mXwcht_-1" source="MDRu_h7Dm8pU5mXwcht_-40" target="MDRu_h7Dm8pU5mXwcht_-54">
          <mxGeometry relative="1" as="geometry">
            <Array as="points">
              <mxPoint x="440" y="527" />
            </Array>
          </mxGeometry>
        </mxCell>
        <mxCell id="MDRu_h7Dm8pU5mXwcht_-40" value="&lt;font color=&quot;#000000&quot;&gt;resize() 扩容&lt;/font&gt;" style="align=center;hachureGap=4;pointerEvents=0;sketch=1;fontSize=16;fontColor=#6666FF;strokeColor=#0000FF;fillColor=none;html=1;strokeWidth=2;" vertex="1" parent="MDRu_h7Dm8pU5mXwcht_-1">
          <mxGeometry x="380" y="324" width="111.5" height="62" as="geometry" />
        </mxCell>
        <mxCell id="MDRu_h7Dm8pU5mXwcht_-55" style="edgeStyle=none;curved=1;rounded=0;sketch=1;orthogonalLoop=1;jettySize=auto;html=1;exitX=1;exitY=0.5;exitDx=0;exitDy=0;entryX=0;entryY=0.5;entryDx=0;entryDy=0;fontSize=16;fontColor=#6666FF;endArrow=open;startSize=14;endSize=14;sourcePerimeterSpacing=8;targetPerimeterSpacing=8;strokeWidth=2;" edge="1" parent="MDRu_h7Dm8pU5mXwcht_-1" source="MDRu_h7Dm8pU5mXwcht_-41" target="MDRu_h7Dm8pU5mXwcht_-40">
          <mxGeometry relative="1" as="geometry" />
        </mxCell>
        <mxCell id="MDRu_h7Dm8pU5mXwcht_-93" value="&lt;font color=&quot;#000000&quot;&gt;是&lt;/font&gt;" style="edgeLabel;html=1;align=center;verticalAlign=middle;resizable=0;points=[];fontSize=16;fontColor=#CC6600;" vertex="1" connectable="0" parent="MDRu_h7Dm8pU5mXwcht_-55">
          <mxGeometry x="-0.1883" relative="1" as="geometry">
            <mxPoint as="offset" />
          </mxGeometry>
        </mxCell>
        <mxCell id="MDRu_h7Dm8pU5mXwcht_-41" value="&lt;span style=&quot;font-family: &amp;#34;pingfang sc&amp;#34; , &amp;#34;lantinghei sc&amp;#34; , &amp;#34;microsoft yahei&amp;#34; , &amp;#34;hiragino sans gb&amp;#34; , &amp;#34;microsoft sans serif&amp;#34; , &amp;#34;wenquanyi micro hei&amp;#34; , sans-serif ; font-size: 15px ; background-color: rgb(253 , 253 , 253)&quot;&gt;&lt;font color=&quot;#ff0000&quot;&gt;①&lt;/font&gt;&lt;/span&gt;&lt;span style=&quot;color: rgb(51 , 51 , 51) ; font-family: &amp;#34;pingfang sc&amp;#34; , &amp;#34;lantinghei sc&amp;#34; , &amp;#34;microsoft yahei&amp;#34; , &amp;#34;hiragino sans gb&amp;#34; , &amp;#34;microsoft sans serif&amp;#34; , &amp;#34;wenquanyi micro hei&amp;#34; , sans-serif ; font-size: 15px ; background-color: rgb(253 , 253 , 253)&quot;&gt;&amp;nbsp;&lt;/span&gt;&lt;font color=&quot;#000000&quot;&gt;table是否为空&lt;br style=&quot;font-size: 16px&quot;&gt;或length==0&lt;/font&gt;" style="shape=rhombus;perimeter=rhombusPerimeter;align=center;hachureGap=4;pointerEvents=0;sketch=1;fontSize=16;fontColor=#6666FF;strokeColor=#FF8000;fillColor=none;html=1;strokeWidth=2;" vertex="1" parent="MDRu_h7Dm8pU5mXwcht_-1">
          <mxGeometry x="84.04" y="300" width="175.25" height="110" as="geometry" />
        </mxCell>
        <mxCell id="MDRu_h7Dm8pU5mXwcht_-57" style="edgeStyle=none;curved=1;rounded=0;sketch=1;orthogonalLoop=1;jettySize=auto;html=1;exitX=1;exitY=0.5;exitDx=0;exitDy=0;entryX=0;entryY=0.5;entryDx=0;entryDy=0;fontSize=16;fontColor=#6666FF;endArrow=open;startSize=14;endSize=14;sourcePerimeterSpacing=8;targetPerimeterSpacing=8;strokeWidth=2;" edge="1" parent="MDRu_h7Dm8pU5mXwcht_-1" source="MDRu_h7Dm8pU5mXwcht_-42" target="MDRu_h7Dm8pU5mXwcht_-56">
          <mxGeometry relative="1" as="geometry" />
        </mxCell>
        <mxCell id="MDRu_h7Dm8pU5mXwcht_-105" value="&lt;font color=&quot;#000000&quot;&gt;是&lt;/font&gt;" style="edgeLabel;html=1;align=center;verticalAlign=middle;resizable=0;points=[];fontSize=16;fontColor=#CC6600;" vertex="1" connectable="0" parent="MDRu_h7Dm8pU5mXwcht_-57">
          <mxGeometry x="-0.2008" y="3" relative="1" as="geometry">
            <mxPoint as="offset" />
          </mxGeometry>
        </mxCell>
        <mxCell id="MDRu_h7Dm8pU5mXwcht_-42" value="&lt;span style=&quot;font-family: &amp;#34;pingfang sc&amp;#34; , &amp;#34;lantinghei sc&amp;#34; , &amp;#34;microsoft yahei&amp;#34; , &amp;#34;hiragino sans gb&amp;#34; , &amp;#34;microsoft sans serif&amp;#34; , &amp;#34;wenquanyi micro hei&amp;#34; , sans-serif ; font-size: 15px ; background-color: rgb(253 , 253 , 253)&quot;&gt;&lt;font color=&quot;#ff0000&quot;&gt;⑥&lt;/font&gt;&lt;/span&gt;&lt;span style=&quot;color: rgb(51 , 51 , 51) ; font-family: &amp;#34;pingfang sc&amp;#34; , &amp;#34;lantinghei sc&amp;#34; , &amp;#34;microsoft yahei&amp;#34; , &amp;#34;hiragino sans gb&amp;#34; , &amp;#34;microsoft sans serif&amp;#34; , &amp;#34;wenquanyi micro hei&amp;#34; , sans-serif ; font-size: 15px ; background-color: rgb(253 , 253 , 253)&quot;&gt;&amp;nbsp;&lt;/span&gt;&lt;font color=&quot;#000000&quot;&gt;++size&amp;gt;threshold&lt;/font&gt;" style="shape=rhombus;perimeter=rhombusPerimeter;whiteSpace=wrap;html=1;align=center;hachureGap=4;pointerEvents=0;sketch=1;fontSize=16;fontColor=#6666FF;strokeColor=#FF8000;fillColor=none;strokeWidth=2;" vertex="1" parent="MDRu_h7Dm8pU5mXwcht_-1">
          <mxGeometry x="79.29" y="960" width="180" height="90" as="geometry" />
        </mxCell>
        <mxCell id="MDRu_h7Dm8pU5mXwcht_-44" value="&lt;font color=&quot;#000000&quot;&gt;直接插入&lt;/font&gt;" style="whiteSpace=wrap;html=1;align=center;hachureGap=4;pointerEvents=0;sketch=1;fontSize=16;fontColor=#6666FF;strokeColor=#0000FF;fillColor=none;strokeWidth=2;" vertex="1" parent="MDRu_h7Dm8pU5mXwcht_-1">
          <mxGeometry x="84" y="770" width="176" height="50" as="geometry" />
        </mxCell>
        <mxCell id="MDRu_h7Dm8pU5mXwcht_-60" style="edgeStyle=none;rounded=1;sketch=1;orthogonalLoop=1;jettySize=auto;html=1;exitX=1;exitY=0.5;exitDx=0;exitDy=0;entryX=0;entryY=0.5;entryDx=0;entryDy=0;fontSize=16;fontColor=#6666FF;endArrow=open;startSize=14;endSize=14;sourcePerimeterSpacing=8;targetPerimeterSpacing=8;strokeWidth=2;" edge="1" parent="MDRu_h7Dm8pU5mXwcht_-1" source="MDRu_h7Dm8pU5mXwcht_-46" target="MDRu_h7Dm8pU5mXwcht_-59">
          <mxGeometry relative="1" as="geometry" />
        </mxCell>
        <mxCell id="MDRu_h7Dm8pU5mXwcht_-46" value="&lt;font color=&quot;#000000&quot;&gt;table[i] == null&lt;/font&gt;" style="shape=rhombus;perimeter=rhombusPerimeter;whiteSpace=wrap;html=1;align=center;hachureGap=4;pointerEvents=0;sketch=1;fontSize=16;fontColor=#6666FF;strokeColor=#FF8000;fillColor=none;strokeWidth=2;" vertex="1" parent="MDRu_h7Dm8pU5mXwcht_-1">
          <mxGeometry x="79.28999999999999" y="620" width="180" height="90" as="geometry" />
        </mxCell>
        <mxCell id="MDRu_h7Dm8pU5mXwcht_-47" value="" style="rounded=1;whiteSpace=wrap;html=1;sketch=1;hachureGap=4;pointerEvents=0;fontSize=29;strokeColor=#6c8ebf;fillColor=none;align=center;verticalAlign=bottom;gradientColor=#7ea6e0;strokeWidth=4;" vertex="1" parent="MDRu_h7Dm8pU5mXwcht_-1">
          <mxGeometry x="92.5" y="1140" width="160" height="56" as="geometry" />
        </mxCell>
        <mxCell id="MDRu_h7Dm8pU5mXwcht_-48" value="&lt;span style=&quot;font-size: 22px&quot;&gt;结束&lt;/span&gt;" style="text;html=1;align=center;verticalAlign=middle;resizable=0;points=[];autosize=1;strokeColor=none;fillColor=none;fontSize=29;gradientColor=#7ea6e0;" vertex="1" parent="MDRu_h7Dm8pU5mXwcht_-1">
          <mxGeometry x="134.15999999999997" y="1148" width="60" height="40" as="geometry" />
        </mxCell>
        <mxCell id="MDRu_h7Dm8pU5mXwcht_-49" value="" style="edgeStyle=none;curved=1;rounded=0;sketch=1;orthogonalLoop=1;jettySize=auto;html=1;fontSize=29;fontColor=#FF0000;endArrow=open;startSize=14;endSize=14;sourcePerimeterSpacing=8;targetPerimeterSpacing=8;entryX=0.489;entryY=0.095;entryDx=0;entryDy=0;entryPerimeter=0;strokeWidth=2;" edge="1" parent="MDRu_h7Dm8pU5mXwcht_-1">
          <mxGeometry relative="1" as="geometry">
            <mxPoint x="169.1160871111111" y="554" as="sourcePoint" />
            <mxPoint x="168.78673999999987" y="622.93" as="targetPoint" />
          </mxGeometry>
        </mxCell>
        <mxCell id="MDRu_h7Dm8pU5mXwcht_-50" value="" style="edgeStyle=none;curved=1;rounded=0;sketch=1;orthogonalLoop=1;jettySize=auto;html=1;fontSize=29;fontColor=#FF0000;endArrow=open;startSize=14;endSize=14;sourcePerimeterSpacing=8;targetPerimeterSpacing=8;strokeWidth=2;" edge="1" parent="MDRu_h7Dm8pU5mXwcht_-1">
          <mxGeometry relative="1" as="geometry">
            <mxPoint x="169.1160871111111" y="710" as="sourcePoint" />
            <mxPoint x="169" y="770" as="targetPoint" />
          </mxGeometry>
        </mxCell>
        <mxCell id="MDRu_h7Dm8pU5mXwcht_-95" value="&lt;font color=&quot;#000000&quot;&gt;是&lt;/font&gt;" style="edgeLabel;html=1;align=center;verticalAlign=middle;resizable=0;points=[];fontSize=16;fontColor=#CC6600;" vertex="1" connectable="0" parent="MDRu_h7Dm8pU5mXwcht_-50">
          <mxGeometry x="-0.4149" y="-2" relative="1" as="geometry">
            <mxPoint as="offset" />
          </mxGeometry>
        </mxCell>
        <mxCell id="MDRu_h7Dm8pU5mXwcht_-51" value="" style="edgeStyle=none;curved=1;rounded=0;sketch=1;orthogonalLoop=1;jettySize=auto;html=1;fontSize=29;fontColor=#FF0000;endArrow=open;startSize=14;endSize=14;sourcePerimeterSpacing=8;targetPerimeterSpacing=8;entryX=0.5;entryY=0;entryDx=0;entryDy=0;strokeWidth=2;" edge="1" parent="MDRu_h7Dm8pU5mXwcht_-1" target="MDRu_h7Dm8pU5mXwcht_-42">
          <mxGeometry relative="1" as="geometry">
            <mxPoint x="168.90608711111102" y="820" as="sourcePoint" />
            <mxPoint x="168.79" y="880" as="targetPoint" />
          </mxGeometry>
        </mxCell>
        <mxCell id="MDRu_h7Dm8pU5mXwcht_-53" value="" style="edgeStyle=none;curved=1;rounded=0;sketch=1;orthogonalLoop=1;jettySize=auto;html=1;fontSize=29;fontColor=#FF0000;endArrow=open;startSize=14;endSize=14;sourcePerimeterSpacing=8;targetPerimeterSpacing=8;strokeWidth=2;" edge="1" parent="MDRu_h7Dm8pU5mXwcht_-1">
          <mxGeometry relative="1" as="geometry">
            <mxPoint x="168.786087111111" y="1048" as="sourcePoint" />
            <mxPoint x="169" y="1140" as="targetPoint" />
          </mxGeometry>
        </mxCell>
        <mxCell id="MDRu_h7Dm8pU5mXwcht_-106" value="&lt;font color=&quot;#000000&quot;&gt;否&lt;/font&gt;" style="edgeLabel;html=1;align=center;verticalAlign=middle;resizable=0;points=[];fontSize=16;fontColor=#CC6600;" vertex="1" connectable="0" parent="MDRu_h7Dm8pU5mXwcht_-53">
          <mxGeometry x="-0.656" y="1" relative="1" as="geometry">
            <mxPoint as="offset" />
          </mxGeometry>
        </mxCell>
        <mxCell id="MDRu_h7Dm8pU5mXwcht_-54" value="&lt;font color=&quot;#ff0000&quot;&gt;&lt;span style=&quot;font-family: &amp;#34;pingfang sc&amp;#34; , &amp;#34;lantinghei sc&amp;#34; , &amp;#34;microsoft yahei&amp;#34; , &amp;#34;hiragino sans gb&amp;#34; , &amp;#34;microsoft sans serif&amp;#34; , &amp;#34;wenquanyi micro hei&amp;#34; , sans-serif ; font-size: 15px ; background-color: rgb(253 , 253 , 253)&quot;&gt;&amp;nbsp;②&lt;/span&gt;&lt;span style=&quot;font-family: &amp;#34;pingfang sc&amp;#34; , &amp;#34;lantinghei sc&amp;#34; , &amp;#34;microsoft yahei&amp;#34; , &amp;#34;hiragino sans gb&amp;#34; , &amp;#34;microsoft sans serif&amp;#34; , &amp;#34;wenquanyi micro hei&amp;#34; , sans-serif ; font-size: 15px ; background-color: rgb(253 , 253 , 253)&quot;&gt;&amp;nbsp;&lt;/span&gt;&lt;/font&gt;&lt;font color=&quot;#000000&quot;&gt;根据key通过hash()函数&lt;br&gt;计算数组索引&lt;/font&gt;" style="align=left;hachureGap=4;pointerEvents=0;sketch=1;fontSize=16;fontColor=#6666FF;strokeColor=#0000FF;fillColor=none;html=1;strokeWidth=2;" vertex="1" parent="MDRu_h7Dm8pU5mXwcht_-1">
          <mxGeometry x="95" y="490" width="175" height="74" as="geometry" />
        </mxCell>
        <mxCell id="MDRu_h7Dm8pU5mXwcht_-87" style="edgeStyle=none;rounded=1;sketch=1;orthogonalLoop=1;jettySize=auto;html=1;exitX=0.5;exitY=1;exitDx=0;exitDy=0;entryX=1;entryY=0.5;entryDx=0;entryDy=0;fontSize=16;fontColor=#CC6600;startArrow=none;startFill=0;endArrow=classic;endFill=1;sourcePerimeterSpacing=8;targetPerimeterSpacing=8;strokeWidth=2;" edge="1" parent="MDRu_h7Dm8pU5mXwcht_-1" source="MDRu_h7Dm8pU5mXwcht_-56" target="MDRu_h7Dm8pU5mXwcht_-47">
          <mxGeometry relative="1" as="geometry">
            <Array as="points">
              <mxPoint x="414" y="1168" />
            </Array>
          </mxGeometry>
        </mxCell>
        <mxCell id="MDRu_h7Dm8pU5mXwcht_-56" value="&lt;font color=&quot;#000000&quot;&gt;resize() 扩容&lt;/font&gt;" style="align=center;hachureGap=4;pointerEvents=0;sketch=1;fontSize=16;fontColor=#6666FF;strokeColor=#0000FF;fillColor=none;html=1;strokeWidth=2;" vertex="1" parent="MDRu_h7Dm8pU5mXwcht_-1">
          <mxGeometry x="358" y="974" width="111.5" height="62" as="geometry" />
        </mxCell>
        <mxCell id="MDRu_h7Dm8pU5mXwcht_-63" style="edgeStyle=none;rounded=1;sketch=1;orthogonalLoop=1;jettySize=auto;html=1;exitX=0.5;exitY=1;exitDx=0;exitDy=0;entryX=0.5;entryY=0;entryDx=0;entryDy=0;fontSize=16;fontColor=#6666FF;endArrow=open;startSize=14;endSize=14;sourcePerimeterSpacing=8;targetPerimeterSpacing=8;" edge="1" parent="MDRu_h7Dm8pU5mXwcht_-1" source="MDRu_h7Dm8pU5mXwcht_-59" target="MDRu_h7Dm8pU5mXwcht_-61">
          <mxGeometry relative="1" as="geometry" />
        </mxCell>
        <mxCell id="MDRu_h7Dm8pU5mXwcht_-100" value="&lt;font color=&quot;#000000&quot;&gt;是&lt;/font&gt;" style="edgeLabel;html=1;align=center;verticalAlign=middle;resizable=0;points=[];fontSize=16;fontColor=#CC6600;" vertex="1" connectable="0" parent="MDRu_h7Dm8pU5mXwcht_-63">
          <mxGeometry x="-0.3482" y="-1" relative="1" as="geometry">
            <mxPoint as="offset" />
          </mxGeometry>
        </mxCell>
        <mxCell id="MDRu_h7Dm8pU5mXwcht_-88" style="edgeStyle=none;rounded=1;sketch=1;orthogonalLoop=1;jettySize=auto;html=1;exitX=1;exitY=0.5;exitDx=0;exitDy=0;entryX=0;entryY=0.5;entryDx=0;entryDy=0;fontSize=16;fontColor=#CC6600;startArrow=none;startFill=0;endArrow=classic;endFill=1;sourcePerimeterSpacing=8;targetPerimeterSpacing=8;strokeWidth=2;" edge="1" parent="MDRu_h7Dm8pU5mXwcht_-1" source="MDRu_h7Dm8pU5mXwcht_-59" target="MDRu_h7Dm8pU5mXwcht_-65">
          <mxGeometry relative="1" as="geometry">
            <Array as="points">
              <mxPoint x="520" y="660" />
              <mxPoint x="520" y="230" />
            </Array>
          </mxGeometry>
        </mxCell>
        <mxCell id="MDRu_h7Dm8pU5mXwcht_-99" value="&lt;font color=&quot;#000000&quot;&gt;否&lt;/font&gt;" style="edgeLabel;html=1;align=center;verticalAlign=middle;resizable=0;points=[];fontSize=16;fontColor=#CC6600;" vertex="1" connectable="0" parent="MDRu_h7Dm8pU5mXwcht_-88">
          <mxGeometry x="-0.8497" y="2" relative="1" as="geometry">
            <mxPoint as="offset" />
          </mxGeometry>
        </mxCell>
        <mxCell id="MDRu_h7Dm8pU5mXwcht_-59" value="&lt;font color=&quot;#000000&quot;&gt;key是否存在&lt;/font&gt;" style="shape=rhombus;perimeter=rhombusPerimeter;whiteSpace=wrap;html=1;align=center;hachureGap=4;pointerEvents=0;sketch=1;fontSize=16;fontColor=#6666FF;strokeColor=#FF9933;fillColor=none;strokeWidth=2;" vertex="1" parent="MDRu_h7Dm8pU5mXwcht_-1">
          <mxGeometry x="280" y="625" width="125" height="80" as="geometry" />
        </mxCell>
        <mxCell id="MDRu_h7Dm8pU5mXwcht_-86" style="edgeStyle=none;rounded=1;sketch=1;orthogonalLoop=1;jettySize=auto;html=1;exitX=0.5;exitY=1;exitDx=0;exitDy=0;fontSize=16;fontColor=#CC6600;startArrow=none;startFill=0;endArrow=none;endFill=0;sourcePerimeterSpacing=8;targetPerimeterSpacing=8;" edge="1" parent="MDRu_h7Dm8pU5mXwcht_-1" source="MDRu_h7Dm8pU5mXwcht_-61">
          <mxGeometry relative="1" as="geometry">
            <mxPoint x="343" y="883" as="targetPoint" />
            <mxPoint x="342.5" y="823" as="sourcePoint" />
          </mxGeometry>
        </mxCell>
        <mxCell id="MDRu_h7Dm8pU5mXwcht_-61" value="&lt;span style=&quot;color: rgb(255 , 0 , 0) ; font-family: &amp;#34;pingfang sc&amp;#34; , &amp;#34;lantinghei sc&amp;#34; , &amp;#34;microsoft yahei&amp;#34; , &amp;#34;hiragino sans gb&amp;#34; , &amp;#34;microsoft sans serif&amp;#34; , &amp;#34;wenquanyi micro hei&amp;#34; , sans-serif ; font-size: 15px ; background-color: rgb(253 , 253 , 253)&quot;&gt;③&amp;nbsp;&amp;nbsp;&lt;/span&gt;&lt;font color=&quot;#000000&quot;&gt;直接覆盖value&lt;/font&gt;" style="whiteSpace=wrap;html=1;align=center;hachureGap=4;pointerEvents=0;sketch=1;fontSize=16;fontColor=#6666FF;strokeColor=#0000FF;fillColor=none;strokeWidth=2;" vertex="1" parent="MDRu_h7Dm8pU5mXwcht_-1">
          <mxGeometry x="287.5" y="770" width="110" height="50" as="geometry" />
        </mxCell>
        <mxCell id="MDRu_h7Dm8pU5mXwcht_-70" style="edgeStyle=none;rounded=1;sketch=1;orthogonalLoop=1;jettySize=auto;html=1;exitX=0.5;exitY=1;exitDx=0;exitDy=0;entryX=0.5;entryY=0;entryDx=0;entryDy=0;fontSize=16;fontColor=#6666FF;endArrow=open;startSize=14;endSize=14;sourcePerimeterSpacing=8;targetPerimeterSpacing=8;strokeWidth=2;" edge="1" parent="MDRu_h7Dm8pU5mXwcht_-1" source="MDRu_h7Dm8pU5mXwcht_-65" target="MDRu_h7Dm8pU5mXwcht_-67">
          <mxGeometry relative="1" as="geometry" />
        </mxCell>
        <mxCell id="MDRu_h7Dm8pU5mXwcht_-102" value="&lt;font color=&quot;#000000&quot;&gt;否&lt;/font&gt;" style="edgeLabel;html=1;align=center;verticalAlign=middle;resizable=0;points=[];fontSize=16;fontColor=#CC6600;" vertex="1" connectable="0" parent="MDRu_h7Dm8pU5mXwcht_-70">
          <mxGeometry x="-0.6484" y="2" relative="1" as="geometry">
            <mxPoint as="offset" />
          </mxGeometry>
        </mxCell>
        <mxCell id="MDRu_h7Dm8pU5mXwcht_-81" style="edgeStyle=none;rounded=1;sketch=1;orthogonalLoop=1;jettySize=auto;html=1;exitX=1;exitY=0.5;exitDx=0;exitDy=0;fontSize=16;fontColor=#6666FF;endArrow=open;startSize=14;endSize=14;sourcePerimeterSpacing=8;targetPerimeterSpacing=8;strokeWidth=2;" edge="1" parent="MDRu_h7Dm8pU5mXwcht_-1" source="MDRu_h7Dm8pU5mXwcht_-65" target="MDRu_h7Dm8pU5mXwcht_-78">
          <mxGeometry relative="1" as="geometry" />
        </mxCell>
        <mxCell id="MDRu_h7Dm8pU5mXwcht_-101" value="&lt;font color=&quot;#000000&quot;&gt;是&lt;/font&gt;" style="edgeLabel;html=1;align=center;verticalAlign=middle;resizable=0;points=[];fontSize=16;fontColor=#CC6600;" vertex="1" connectable="0" parent="MDRu_h7Dm8pU5mXwcht_-81">
          <mxGeometry x="-0.7593" y="2" relative="1" as="geometry">
            <mxPoint as="offset" />
          </mxGeometry>
        </mxCell>
        <mxCell id="MDRu_h7Dm8pU5mXwcht_-65" value="&lt;span style=&quot;font-family: &amp;#34;pingfang sc&amp;#34; , &amp;#34;lantinghei sc&amp;#34; , &amp;#34;microsoft yahei&amp;#34; , &amp;#34;hiragino sans gb&amp;#34; , &amp;#34;microsoft sans serif&amp;#34; , &amp;#34;wenquanyi micro hei&amp;#34; , sans-serif ; font-size: 15px ; background-color: rgb(253 , 253 , 253)&quot;&gt;&lt;font color=&quot;#ff0000&quot;&gt;④&lt;/font&gt;&lt;/span&gt;&lt;font color=&quot;#000000&quot;&gt;&lt;br&gt;table[i]是否是TreeNode&lt;/font&gt;" style="shape=rhombus;perimeter=rhombusPerimeter;whiteSpace=wrap;html=1;align=center;hachureGap=4;pointerEvents=0;sketch=1;fontSize=16;fontColor=#6666FF;strokeColor=#FF8000;fillColor=none;strokeWidth=2;" vertex="1" parent="MDRu_h7Dm8pU5mXwcht_-1">
          <mxGeometry x="592.5" y="190" width="145" height="80" as="geometry" />
        </mxCell>
        <mxCell id="MDRu_h7Dm8pU5mXwcht_-71" style="edgeStyle=none;rounded=1;sketch=1;orthogonalLoop=1;jettySize=auto;html=1;exitX=0.5;exitY=1;exitDx=0;exitDy=0;entryX=0.5;entryY=0;entryDx=0;entryDy=0;fontSize=16;fontColor=#6666FF;endArrow=open;startSize=14;endSize=14;sourcePerimeterSpacing=8;targetPerimeterSpacing=8;strokeWidth=2;" edge="1" parent="MDRu_h7Dm8pU5mXwcht_-1" source="MDRu_h7Dm8pU5mXwcht_-67" target="MDRu_h7Dm8pU5mXwcht_-68">
          <mxGeometry relative="1" as="geometry" />
        </mxCell>
        <mxCell id="MDRu_h7Dm8pU5mXwcht_-67" value="&lt;span style=&quot;font-family: &amp;#34;pingfang sc&amp;#34; , &amp;#34;lantinghei sc&amp;#34; , &amp;#34;microsoft yahei&amp;#34; , &amp;#34;hiragino sans gb&amp;#34; , &amp;#34;microsoft sans serif&amp;#34; , &amp;#34;wenquanyi micro hei&amp;#34; , sans-serif ; font-size: 15px ; background-color: rgb(253 , 253 , 253)&quot;&gt;&lt;font color=&quot;#ff0000&quot;&gt;⑤&amp;nbsp;&lt;/font&gt;&lt;/span&gt;&lt;font color=&quot;#000000&quot;&gt;遍历链表&lt;/font&gt;" style="align=center;hachureGap=4;pointerEvents=0;sketch=1;fontSize=16;fontColor=#6666FF;strokeColor=#0000FF;fillColor=none;html=1;strokeWidth=2;" vertex="1" parent="MDRu_h7Dm8pU5mXwcht_-1">
          <mxGeometry x="606.5" y="410" width="113.5" height="62" as="geometry" />
        </mxCell>
        <mxCell id="MDRu_h7Dm8pU5mXwcht_-72" style="edgeStyle=none;rounded=1;sketch=1;orthogonalLoop=1;jettySize=auto;html=1;exitX=0.5;exitY=1;exitDx=0;exitDy=0;fontSize=16;fontColor=#6666FF;endArrow=open;startSize=14;endSize=14;sourcePerimeterSpacing=8;targetPerimeterSpacing=8;entryX=0.5;entryY=0;entryDx=0;entryDy=0;strokeWidth=2;" edge="1" parent="MDRu_h7Dm8pU5mXwcht_-1" source="MDRu_h7Dm8pU5mXwcht_-68" target="MDRu_h7Dm8pU5mXwcht_-69">
          <mxGeometry relative="1" as="geometry" />
        </mxCell>
        <mxCell id="MDRu_h7Dm8pU5mXwcht_-103" value="&lt;font color=&quot;#000000&quot;&gt;是&lt;/font&gt;" style="edgeLabel;html=1;align=center;verticalAlign=middle;resizable=0;points=[];fontSize=16;fontColor=#CC6600;" vertex="1" connectable="0" parent="MDRu_h7Dm8pU5mXwcht_-72">
          <mxGeometry x="-0.4601" y="-2" relative="1" as="geometry">
            <mxPoint as="offset" />
          </mxGeometry>
        </mxCell>
        <mxCell id="MDRu_h7Dm8pU5mXwcht_-74" value="" style="edgeStyle=none;rounded=1;sketch=1;orthogonalLoop=1;jettySize=auto;html=1;fontSize=16;fontColor=#6666FF;endArrow=open;startSize=14;endSize=14;sourcePerimeterSpacing=8;targetPerimeterSpacing=8;strokeWidth=2;" edge="1" parent="MDRu_h7Dm8pU5mXwcht_-1" source="MDRu_h7Dm8pU5mXwcht_-68" target="MDRu_h7Dm8pU5mXwcht_-73">
          <mxGeometry relative="1" as="geometry" />
        </mxCell>
        <mxCell id="MDRu_h7Dm8pU5mXwcht_-104" value="&lt;font color=&quot;#000000&quot;&gt;否&lt;/font&gt;" style="edgeLabel;html=1;align=center;verticalAlign=middle;resizable=0;points=[];fontSize=16;fontColor=#CC6600;" vertex="1" connectable="0" parent="MDRu_h7Dm8pU5mXwcht_-74">
          <mxGeometry x="-0.2919" y="3" relative="1" as="geometry">
            <mxPoint as="offset" />
          </mxGeometry>
        </mxCell>
        <mxCell id="MDRu_h7Dm8pU5mXwcht_-68" value="&lt;font color=&quot;#000000&quot;&gt;key是否存在&lt;/font&gt;" style="shape=rhombus;perimeter=rhombusPerimeter;whiteSpace=wrap;html=1;align=center;hachureGap=4;pointerEvents=0;sketch=1;fontSize=16;fontColor=#6666FF;strokeColor=#FF8000;fillColor=none;strokeWidth=2;" vertex="1" parent="MDRu_h7Dm8pU5mXwcht_-1">
          <mxGeometry x="601.25" y="620" width="127.5" height="75" as="geometry" />
        </mxCell>
        <mxCell id="MDRu_h7Dm8pU5mXwcht_-85" style="edgeStyle=none;rounded=1;sketch=1;orthogonalLoop=1;jettySize=auto;html=1;exitX=0.5;exitY=1;exitDx=0;exitDy=0;fontSize=16;fontColor=#CC6600;startArrow=none;startFill=0;endArrow=none;endFill=0;sourcePerimeterSpacing=8;targetPerimeterSpacing=8;strokeWidth=2;" edge="1" parent="MDRu_h7Dm8pU5mXwcht_-1" source="MDRu_h7Dm8pU5mXwcht_-69">
          <mxGeometry relative="1" as="geometry">
            <mxPoint x="665" y="880" as="targetPoint" />
          </mxGeometry>
        </mxCell>
        <mxCell id="MDRu_h7Dm8pU5mXwcht_-69" value="&lt;font color=&quot;#000000&quot;&gt;直接覆盖value&lt;/font&gt;" style="whiteSpace=wrap;html=1;align=center;hachureGap=4;pointerEvents=0;sketch=1;fontSize=16;fontColor=#6666FF;strokeColor=#0000FF;fillColor=none;strokeWidth=2;" vertex="1" parent="MDRu_h7Dm8pU5mXwcht_-1">
          <mxGeometry x="610" y="760" width="110" height="50" as="geometry" />
        </mxCell>
        <mxCell id="MDRu_h7Dm8pU5mXwcht_-77" value="" style="edgeStyle=none;rounded=1;sketch=1;orthogonalLoop=1;jettySize=auto;html=1;fontSize=16;fontColor=#6666FF;endArrow=open;startSize=14;endSize=14;sourcePerimeterSpacing=8;targetPerimeterSpacing=8;exitX=0.5;exitY=1;exitDx=0;exitDy=0;strokeWidth=2;" edge="1" parent="MDRu_h7Dm8pU5mXwcht_-1" source="MDRu_h7Dm8pU5mXwcht_-73">
          <mxGeometry relative="1" as="geometry">
            <mxPoint x="873" y="751" as="targetPoint" />
          </mxGeometry>
        </mxCell>
        <mxCell id="MDRu_h7Dm8pU5mXwcht_-73" value="&lt;font color=&quot;#000000&quot;&gt;插入节点&lt;/font&gt;" style="whiteSpace=wrap;html=1;fontSize=16;fontColor=#6666FF;strokeColor=#0000FF;fillColor=none;sketch=1;hachureGap=4;strokeWidth=2;" vertex="1" parent="MDRu_h7Dm8pU5mXwcht_-1">
          <mxGeometry x="812.5" y="627.5" width="120" height="60" as="geometry" />
        </mxCell>
        <mxCell id="MDRu_h7Dm8pU5mXwcht_-80" style="edgeStyle=none;rounded=1;sketch=1;orthogonalLoop=1;jettySize=auto;html=1;exitX=1;exitY=0.5;exitDx=0;exitDy=0;entryX=0;entryY=0.5;entryDx=0;entryDy=0;fontSize=16;fontColor=#6666FF;endArrow=open;startSize=14;endSize=14;sourcePerimeterSpacing=8;targetPerimeterSpacing=8;strokeWidth=2;" edge="1" parent="MDRu_h7Dm8pU5mXwcht_-1" source="MDRu_h7Dm8pU5mXwcht_-76" target="MDRu_h7Dm8pU5mXwcht_-79">
          <mxGeometry relative="1" as="geometry" />
        </mxCell>
        <mxCell id="MDRu_h7Dm8pU5mXwcht_-83" style="edgeStyle=none;rounded=1;sketch=1;orthogonalLoop=1;jettySize=auto;html=1;exitX=0.5;exitY=1;exitDx=0;exitDy=0;fontSize=16;fontColor=#CC6600;endArrow=none;sourcePerimeterSpacing=8;targetPerimeterSpacing=8;endFill=0;strokeWidth=2;" edge="1" parent="MDRu_h7Dm8pU5mXwcht_-1" source="MDRu_h7Dm8pU5mXwcht_-76">
          <mxGeometry relative="1" as="geometry">
            <mxPoint x="873" y="880" as="targetPoint" />
          </mxGeometry>
        </mxCell>
        <mxCell id="MDRu_h7Dm8pU5mXwcht_-111" value="&lt;font color=&quot;#000000&quot;&gt;否&lt;/font&gt;" style="edgeLabel;html=1;align=center;verticalAlign=middle;resizable=0;points=[];fontSize=16;fontColor=#CC6600;" vertex="1" connectable="0" parent="MDRu_h7Dm8pU5mXwcht_-83">
          <mxGeometry x="-0.5363" y="1" relative="1" as="geometry">
            <mxPoint as="offset" />
          </mxGeometry>
        </mxCell>
        <mxCell id="MDRu_h7Dm8pU5mXwcht_-76" value="&lt;font color=&quot;#000000&quot;&gt;链表长度是否大于8&lt;/font&gt;" style="rhombus;whiteSpace=wrap;html=1;fontSize=16;fontColor=#6666FF;strokeColor=#CC6600;fillColor=none;sketch=1;hachureGap=4;strokeWidth=2;" vertex="1" parent="MDRu_h7Dm8pU5mXwcht_-1">
          <mxGeometry x="796.88" y="754.38" width="151.25" height="61.25" as="geometry" />
        </mxCell>
        <mxCell id="MDRu_h7Dm8pU5mXwcht_-82" style="edgeStyle=none;rounded=1;sketch=1;orthogonalLoop=1;jettySize=auto;html=1;exitX=0.5;exitY=1;exitDx=0;exitDy=0;fontSize=16;fontColor=#6666FF;endArrow=open;startSize=14;endSize=14;sourcePerimeterSpacing=8;targetPerimeterSpacing=8;strokeWidth=2;" edge="1" parent="MDRu_h7Dm8pU5mXwcht_-1" source="MDRu_h7Dm8pU5mXwcht_-78">
          <mxGeometry relative="1" as="geometry">
            <mxPoint x="170" y="888" as="targetPoint" />
            <Array as="points">
              <mxPoint x="1140" y="880" />
            </Array>
          </mxGeometry>
        </mxCell>
        <mxCell id="MDRu_h7Dm8pU5mXwcht_-78" value="&lt;font color=&quot;#000000&quot;&gt;在红黑树中直接插入&lt;/font&gt;" style="whiteSpace=wrap;html=1;fontSize=16;fontColor=#6666FF;strokeColor=#0000FF;fillColor=none;sketch=1;hachureGap=4;align=left;strokeWidth=2;" vertex="1" parent="MDRu_h7Dm8pU5mXwcht_-1">
          <mxGeometry x="1071.5" y="200" width="120" height="60" as="geometry" />
        </mxCell>
        <mxCell id="MDRu_h7Dm8pU5mXwcht_-84" style="edgeStyle=none;rounded=1;sketch=1;orthogonalLoop=1;jettySize=auto;html=1;exitX=0.5;exitY=1;exitDx=0;exitDy=0;fontSize=16;fontColor=#CC6600;startArrow=none;startFill=0;endArrow=none;endFill=0;sourcePerimeterSpacing=8;targetPerimeterSpacing=8;strokeWidth=2;" edge="1" parent="MDRu_h7Dm8pU5mXwcht_-1" source="MDRu_h7Dm8pU5mXwcht_-79">
          <mxGeometry relative="1" as="geometry">
            <mxPoint x="1040" y="880" as="targetPoint" />
          </mxGeometry>
        </mxCell>
        <mxCell id="MDRu_h7Dm8pU5mXwcht_-79" value="&lt;font color=&quot;#000000&quot;&gt;转化为红黑树&lt;/font&gt;" style="whiteSpace=wrap;html=1;fontSize=16;fontColor=#6666FF;strokeColor=#0000FF;fillColor=none;sketch=1;hachureGap=4;align=center;strokeWidth=2;" vertex="1" parent="MDRu_h7Dm8pU5mXwcht_-1">
          <mxGeometry x="980" y="754.38" width="120" height="60" as="geometry" />
        </mxCell>
        <mxCell id="MDRu_h7Dm8pU5mXwcht_-96" value="&lt;font color=&quot;#000000&quot;&gt;否&lt;/font&gt;" style="text;html=1;align=center;verticalAlign=middle;resizable=0;points=[];autosize=1;strokeColor=none;fillColor=none;fontSize=16;fontColor=#CC6600;" vertex="1" parent="MDRu_h7Dm8pU5mXwcht_-1">
          <mxGeometry x="255" y="630" width="30" height="20" as="geometry" />
        </mxCell>
        <mxCell id="MDRu_h7Dm8pU5mXwcht_-110" value="&lt;font color=&quot;#000000&quot;&gt;是&lt;/font&gt;" style="text;html=1;align=center;verticalAlign=middle;resizable=0;points=[];autosize=1;strokeColor=none;fillColor=none;fontSize=16;fontColor=#CC6600;" vertex="1" parent="MDRu_h7Dm8pU5mXwcht_-1">
          <mxGeometry x="945" y="760" width="30" height="20" as="geometry" />
        </mxCell>
      </root>
    </mxGraphModel>
  </diagram>
</mxfile>
